<svg id="visual" viewBox="0 0 1920 1080" width="1920" height="1080" xmlns="http://www.w3.org/2000/svg" xmlns:xlink="http://www.w3.org/1999/xlink" version="1.1"><g stroke-width="1" stroke-linejoin="bevel"><path d="M968 612L994 717L1071 580Z" fill="#00469d" stroke="#00469d"></path><path d="M994 717L1051 748L1071 580Z" fill="#123161" stroke="#123161"></path><path d="M1051 748L1172 601L1071 580Z" fill="#0856cf" stroke="#0856cf"></path><path d="M1172 601L1096 509L1071 580Z" fill="#0856cf" stroke="#0856cf"></path><path d="M1071 580L943 449L968 612Z" fill="#004aaa" stroke="#004aaa"></path><path d="M888 852L985 820L994 717Z" fill="#0052c2" stroke="#0052c2"></path><path d="M994 717L985 820L1051 748Z" fill="#0a3a79" stroke="#0a3a79"></path><path d="M808 638L853 671L968 612Z" fill="#004aaa" stroke="#004aaa"></path><path d="M968 612L853 671L994 717Z" fill="#014291" stroke="#014291"></path><path d="M1172 601L1185 514L1096 509Z" fill="#0e366d" stroke="#0e366d"></path><path d="M1226 857L1234 751L1051 748Z" fill="#0a3a79" stroke="#0a3a79"></path><path d="M1051 748L1234 751L1172 601Z" fill="#004eb6" stroke="#004eb6"></path><path d="M1172 601L1297 494L1185 514Z" fill="#053e85" stroke="#053e85"></path><path d="M1122 346L943 449L1096 509Z" fill="#0052c2" stroke="#0052c2"></path><path d="M1096 509L943 449L1071 580Z" fill="#00469d" stroke="#00469d"></path><path d="M825 439L808 638L968 612Z" fill="#004eb6" stroke="#004eb6"></path><path d="M853 671L888 852L994 717Z" fill="#0a3a79" stroke="#0a3a79"></path><path d="M985 820L1056 880L1051 748Z" fill="#0a3a79" stroke="#0a3a79"></path><path d="M729 843L888 852L853 671Z" fill="#142d55" stroke="#142d55"></path><path d="M985 820L996 913L1056 880Z" fill="#0e366d" stroke="#0e366d"></path><path d="M888 852L996 913L985 820Z" fill="#0856cf" stroke="#0856cf"></path><path d="M1056 880L1226 857L1051 748Z" fill="#00469d" stroke="#00469d"></path><path d="M1061 939L1226 857L1056 880Z" fill="#142d55" stroke="#142d55"></path><path d="M1185 514L1152 386L1096 509Z" fill="#004aaa" stroke="#004aaa"></path><path d="M996 913L1061 939L1056 880Z" fill="#0a3a79" stroke="#0a3a79"></path><path d="M885 373L825 439L943 449Z" fill="#00469d" stroke="#00469d"></path><path d="M943 449L825 439L968 612Z" fill="#014291" stroke="#014291"></path><path d="M1363 568L1297 494L1172 601Z" fill="#014291" stroke="#014291"></path><path d="M1185 514L1297 494L1152 386Z" fill="#123161" stroke="#123161"></path><path d="M1368 683L1172 601L1234 751Z" fill="#004eb6" stroke="#004eb6"></path><path d="M948 325L885 373L943 449Z" fill="#0052c2" stroke="#0052c2"></path><path d="M1190 250L1122 346L1152 386Z" fill="#004eb6" stroke="#004eb6"></path><path d="M1152 386L1122 346L1096 509Z" fill="#0052c2" stroke="#0052c2"></path><path d="M1247 923L1315 832L1226 857Z" fill="#004eb6" stroke="#004eb6"></path><path d="M1226 857L1315 832L1234 751Z" fill="#0856cf" stroke="#0856cf"></path><path d="M1315 832L1368 683L1234 751Z" fill="#0a3a79" stroke="#0a3a79"></path><path d="M1368 683L1363 568L1172 601Z" fill="#004aaa" stroke="#004aaa"></path><path d="M1122 346L948 325L943 449Z" fill="#00469d" stroke="#00469d"></path><path d="M729 843L870 949L888 852Z" fill="#0a3a79" stroke="#0a3a79"></path><path d="M888 852L870 949L996 913Z" fill="#004aaa" stroke="#004aaa"></path><path d="M972 1080L1101 1080L1061 939Z" fill="#004eb6" stroke="#004eb6"></path><path d="M1061 939L1247 923L1226 857Z" fill="#0e366d" stroke="#0e366d"></path><path d="M676 619L690 681L808 638Z" fill="#0a3a79" stroke="#0a3a79"></path><path d="M808 638L690 681L853 671Z" fill="#053e85" stroke="#053e85"></path><path d="M722 450L676 619L808 638Z" fill="#123161" stroke="#123161"></path><path d="M690 681L729 843L853 671Z" fill="#0856cf" stroke="#0856cf"></path><path d="M711 364L722 450L825 439Z" fill="#0a3a79" stroke="#0a3a79"></path><path d="M825 439L722 450L808 638Z" fill="#053e85" stroke="#053e85"></path><path d="M711 364L825 439L763 275Z" fill="#053e85" stroke="#053e85"></path><path d="M1190 250L1075 261L1122 346Z" fill="#123161" stroke="#123161"></path><path d="M1122 346L1075 261L948 325Z" fill="#0a3a79" stroke="#0a3a79"></path><path d="M948 237L871 287L948 325Z" fill="#00469d" stroke="#00469d"></path><path d="M948 325L871 287L885 373Z" fill="#0052c2" stroke="#0052c2"></path><path d="M1433 437L1328 376L1297 494Z" fill="#00469d" stroke="#00469d"></path><path d="M1297 494L1328 376L1152 386Z" fill="#142d55" stroke="#142d55"></path><path d="M1368 683L1444 597L1363 568Z" fill="#0052c2" stroke="#0052c2"></path><path d="M1363 568L1433 437L1297 494Z" fill="#00469d" stroke="#00469d"></path><path d="M1461 691L1444 597L1368 683Z" fill="#053e85" stroke="#053e85"></path><path d="M1367 925L1425 796L1315 832Z" fill="#00469d" stroke="#00469d"></path><path d="M1315 832L1425 796L1368 683Z" fill="#004aaa" stroke="#004aaa"></path><path d="M1075 261L948 237L948 325Z" fill="#123161" stroke="#123161"></path><path d="M1425 796L1461 691L1368 683Z" fill="#004eb6" stroke="#004eb6"></path><path d="M1328 376L1190 250L1152 386Z" fill="#142d55" stroke="#142d55"></path><path d="M1075 261L1099 163L948 237Z" fill="#053e85" stroke="#053e85"></path><path d="M1406 973L1367 925L1287 1080Z" fill="#0856cf" stroke="#0856cf"></path><path d="M1247 923L1367 925L1315 832Z" fill="#00469d" stroke="#00469d"></path><path d="M1168 1080L1247 923L1061 939Z" fill="#00469d" stroke="#00469d"></path><path d="M763 275L825 439L885 373Z" fill="#123161" stroke="#123161"></path><path d="M722 450L598 577L676 619Z" fill="#0a3a79" stroke="#0a3a79"></path><path d="M763 275L885 373L871 287Z" fill="#00469d" stroke="#00469d"></path><path d="M972 1080L1061 939L996 913Z" fill="#123161" stroke="#123161"></path><path d="M870 949L972 1080L996 913Z" fill="#0052c2" stroke="#0052c2"></path><path d="M808 1080L972 1080L870 949Z" fill="#0e366d" stroke="#0e366d"></path><path d="M590 443L598 577L722 450Z" fill="#123161" stroke="#123161"></path><path d="M676 619L565 694L690 681Z" fill="#004eb6" stroke="#004eb6"></path><path d="M690 681L615 887L729 843Z" fill="#123161" stroke="#123161"></path><path d="M1101 1080L1168 1080L1061 939Z" fill="#014291" stroke="#014291"></path><path d="M1444 597L1433 437L1363 568Z" fill="#014291" stroke="#014291"></path><path d="M1328 376L1368 245L1190 250Z" fill="#0856cf" stroke="#0856cf"></path><path d="M1543 462L1433 437L1444 597Z" fill="#00469d" stroke="#00469d"></path><path d="M615 887L728 988L729 843Z" fill="#142d55" stroke="#142d55"></path><path d="M729 843L728 988L870 949Z" fill="#142d55" stroke="#142d55"></path><path d="M845 153L763 275L871 287Z" fill="#014291" stroke="#014291"></path><path d="M598 577L565 694L676 619Z" fill="#00469d" stroke="#00469d"></path><path d="M565 694L615 887L690 681Z" fill="#014291" stroke="#014291"></path><path d="M727 1080L808 1080L728 988Z" fill="#0856cf" stroke="#0856cf"></path><path d="M728 988L808 1080L870 949Z" fill="#0a3a79" stroke="#0a3a79"></path><path d="M1287 1080L1367 925L1247 923Z" fill="#0e366d" stroke="#0e366d"></path><path d="M1367 925L1406 973L1425 796Z" fill="#142d55" stroke="#142d55"></path><path d="M1425 796L1563 731L1461 691Z" fill="#0a3a79" stroke="#0a3a79"></path><path d="M1221 87L1099 163L1190 250Z" fill="#123161" stroke="#123161"></path><path d="M1190 250L1099 163L1075 261Z" fill="#014291" stroke="#014291"></path><path d="M948 237L845 153L871 287Z" fill="#014291" stroke="#014291"></path><path d="M637 349L722 450L711 364Z" fill="#0052c2" stroke="#0052c2"></path><path d="M637 349L590 443L722 450Z" fill="#0e366d" stroke="#0e366d"></path><path d="M598 577L526 566L565 694Z" fill="#142d55" stroke="#142d55"></path><path d="M1168 1080L1287 1080L1247 923Z" fill="#0a3a79" stroke="#0a3a79"></path><path d="M763 275L637 349L711 364Z" fill="#0856cf" stroke="#0856cf"></path><path d="M434 483L526 566L590 443Z" fill="#053e85" stroke="#053e85"></path><path d="M590 443L526 566L598 577Z" fill="#00469d" stroke="#00469d"></path><path d="M565 694L512 798L615 887Z" fill="#123161" stroke="#123161"></path><path d="M1479 330L1368 245L1328 376Z" fill="#0a3a79" stroke="#0a3a79"></path><path d="M498 920L644 999L615 887Z" fill="#0e366d" stroke="#0e366d"></path><path d="M615 887L644 999L728 988Z" fill="#123161" stroke="#123161"></path><path d="M644 999L727 1080L728 988Z" fill="#0e366d" stroke="#0e366d"></path><path d="M1556 811L1563 731L1425 796Z" fill="#0856cf" stroke="#0856cf"></path><path d="M1461 691L1606 630L1444 597Z" fill="#0052c2" stroke="#0052c2"></path><path d="M1433 437L1479 330L1328 376Z" fill="#00469d" stroke="#00469d"></path><path d="M989 101L845 153L948 237Z" fill="#053e85" stroke="#053e85"></path><path d="M763 275L622 191L637 349Z" fill="#014291" stroke="#014291"></path><path d="M1606 630L1543 462L1444 597Z" fill="#00469d" stroke="#00469d"></path><path d="M1514 991L1556 811L1425 796Z" fill="#014291" stroke="#014291"></path><path d="M462 723L512 798L565 694Z" fill="#0a3a79" stroke="#0a3a79"></path><path d="M1540 403L1479 330L1433 437Z" fill="#053e85" stroke="#053e85"></path><path d="M1048 0L989 101L1099 163Z" fill="#0052c2" stroke="#0052c2"></path><path d="M1099 163L989 101L948 237Z" fill="#123161" stroke="#123161"></path><path d="M1647 503L1540 403L1543 462Z" fill="#0856cf" stroke="#0856cf"></path><path d="M1543 462L1540 403L1433 437Z" fill="#0a3a79" stroke="#0a3a79"></path><path d="M1287 1080L1398 1080L1406 973Z" fill="#123161" stroke="#123161"></path><path d="M1406 973L1514 991L1425 796Z" fill="#00469d" stroke="#00469d"></path><path d="M1685 671L1606 630L1563 731Z" fill="#0856cf" stroke="#0856cf"></path><path d="M1563 731L1606 630L1461 691Z" fill="#014291" stroke="#014291"></path><path d="M526 566L462 723L565 694Z" fill="#0052c2" stroke="#0052c2"></path><path d="M512 798L498 920L615 887Z" fill="#014291" stroke="#014291"></path><path d="M1398 1080L1514 991L1406 973Z" fill="#142d55" stroke="#142d55"></path><path d="M1712 570L1647 503L1606 630Z" fill="#053e85" stroke="#053e85"></path><path d="M1315 118L1190 250L1368 245Z" fill="#00469d" stroke="#00469d"></path><path d="M1315 118L1221 87L1190 250Z" fill="#0856cf" stroke="#0856cf"></path><path d="M1470 163L1315 118L1368 245Z" fill="#004eb6" stroke="#004eb6"></path><path d="M1488 234L1368 245L1479 330Z" fill="#053e85" stroke="#053e85"></path><path d="M342 828L498 920L512 798Z" fill="#00469d" stroke="#00469d"></path><path d="M644 999L613 1080L727 1080Z" fill="#142d55" stroke="#142d55"></path><path d="M508 1080L613 1080L644 999Z" fill="#014291" stroke="#014291"></path><path d="M475 207L495 369L637 349Z" fill="#00469d" stroke="#00469d"></path><path d="M637 349L495 369L590 443Z" fill="#0856cf" stroke="#0856cf"></path><path d="M526 566L383 644L462 723Z" fill="#0e366d" stroke="#0e366d"></path><path d="M1567 272L1488 234L1479 330Z" fill="#142d55" stroke="#142d55"></path><path d="M741 0L682 145L845 153Z" fill="#123161" stroke="#123161"></path><path d="M845 153L682 145L763 275Z" fill="#004eb6" stroke="#004eb6"></path><path d="M682 145L622 191L763 275Z" fill="#004eb6" stroke="#004eb6"></path><path d="M495 369L434 483L590 443Z" fill="#004eb6" stroke="#004eb6"></path><path d="M1685 671L1563 731L1698 800Z" fill="#142d55" stroke="#142d55"></path><path d="M1606 630L1647 503L1543 462Z" fill="#0052c2" stroke="#0052c2"></path><path d="M1540 403L1567 272L1479 330Z" fill="#004eb6" stroke="#004eb6"></path><path d="M331 244L385 399L495 369Z" fill="#0052c2" stroke="#0052c2"></path><path d="M682 145L641 155L622 191Z" fill="#014291" stroke="#014291"></path><path d="M385 399L402 519L434 483Z" fill="#004eb6" stroke="#004eb6"></path><path d="M434 483L402 519L526 566Z" fill="#123161" stroke="#123161"></path><path d="M462 723L342 828L512 798Z" fill="#053e85" stroke="#053e85"></path><path d="M1698 800L1563 731L1556 811Z" fill="#004eb6" stroke="#004eb6"></path><path d="M1192 0L1048 0L1099 163Z" fill="#014291" stroke="#014291"></path><path d="M989 101L886 0L845 153Z" fill="#004aaa" stroke="#004aaa"></path><path d="M682 145L565 0L641 155Z" fill="#004aaa" stroke="#004aaa"></path><path d="M1192 0L1099 163L1221 87Z" fill="#004eb6" stroke="#004eb6"></path><path d="M1696 321L1567 272L1540 403Z" fill="#053e85" stroke="#053e85"></path><path d="M1488 234L1470 163L1368 245Z" fill="#0a3a79" stroke="#0a3a79"></path><path d="M1511 115L1470 163L1488 234Z" fill="#142d55" stroke="#142d55"></path><path d="M1313 0L1192 0L1221 87Z" fill="#0e366d" stroke="#0e366d"></path><path d="M402 519L383 644L526 566Z" fill="#014291" stroke="#014291"></path><path d="M1398 1080L1535 1080L1514 991Z" fill="#123161" stroke="#123161"></path><path d="M1690 920L1698 800L1556 811Z" fill="#142d55" stroke="#142d55"></path><path d="M1048 0L921 0L989 101Z" fill="#004aaa" stroke="#004aaa"></path><path d="M921 0L886 0L989 101Z" fill="#00469d" stroke="#00469d"></path><path d="M1313 0L1221 87L1315 118Z" fill="#0e366d" stroke="#0e366d"></path><path d="M1690 920L1556 811L1514 991Z" fill="#00469d" stroke="#00469d"></path><path d="M1685 671L1712 570L1606 630Z" fill="#014291" stroke="#014291"></path><path d="M1647 503L1696 321L1540 403Z" fill="#0a3a79" stroke="#0a3a79"></path><path d="M1765 673L1712 570L1685 671Z" fill="#004aaa" stroke="#004aaa"></path><path d="M352 1080L508 1080L498 920Z" fill="#123161" stroke="#123161"></path><path d="M498 920L508 1080L644 999Z" fill="#00469d" stroke="#00469d"></path><path d="M260 616L313 742L383 644Z" fill="#0052c2" stroke="#0052c2"></path><path d="M495 369L385 399L434 483Z" fill="#123161" stroke="#123161"></path><path d="M475 207L637 349L622 191Z" fill="#004eb6" stroke="#004eb6"></path><path d="M1670 1080L1690 920L1514 991Z" fill="#0052c2" stroke="#0052c2"></path><path d="M1407 0L1313 0L1315 118Z" fill="#00469d" stroke="#00469d"></path><path d="M886 0L741 0L845 153Z" fill="#123161" stroke="#123161"></path><path d="M526 106L475 207L622 191Z" fill="#00469d" stroke="#00469d"></path><path d="M1567 272L1511 115L1488 234Z" fill="#014291" stroke="#014291"></path><path d="M1470 163L1407 0L1315 118Z" fill="#0e366d" stroke="#0e366d"></path><path d="M1651 206L1511 115L1567 272Z" fill="#00469d" stroke="#00469d"></path><path d="M526 106L622 191L641 155Z" fill="#00469d" stroke="#00469d"></path><path d="M313 742L462 723L383 644Z" fill="#0a3a79" stroke="#0a3a79"></path><path d="M313 742L342 828L462 723Z" fill="#00469d" stroke="#00469d"></path><path d="M1780 800L1765 673L1698 800Z" fill="#0856cf" stroke="#0856cf"></path><path d="M1698 800L1765 673L1685 671Z" fill="#123161" stroke="#123161"></path><path d="M1800 476L1696 321L1647 503Z" fill="#142d55" stroke="#142d55"></path><path d="M260 616L383 644L402 519Z" fill="#004eb6" stroke="#004eb6"></path><path d="M1800 476L1647 503L1712 570Z" fill="#014291" stroke="#014291"></path><path d="M565 0L526 106L641 155Z" fill="#014291" stroke="#014291"></path><path d="M1511 115L1407 0L1470 163Z" fill="#004aaa" stroke="#004aaa"></path><path d="M1690 920L1780 800L1698 800Z" fill="#142d55" stroke="#142d55"></path><path d="M1696 321L1651 206L1567 272Z" fill="#014291" stroke="#014291"></path><path d="M1511 115L1606 0L1407 0Z" fill="#0e366d" stroke="#0e366d"></path><path d="M1920 607L1798 596L1765 673Z" fill="#004eb6" stroke="#004eb6"></path><path d="M1765 673L1798 596L1712 570Z" fill="#123161" stroke="#123161"></path><path d="M1535 1080L1670 1080L1514 991Z" fill="#014291" stroke="#014291"></path><path d="M1690 920L1782 1000L1780 800Z" fill="#00469d" stroke="#00469d"></path><path d="M288 936L315 926L342 828Z" fill="#014291" stroke="#014291"></path><path d="M342 828L315 926L498 920Z" fill="#014291" stroke="#014291"></path><path d="M238 466L402 519L385 399Z" fill="#00469d" stroke="#00469d"></path><path d="M238 466L260 616L402 519Z" fill="#004aaa" stroke="#004aaa"></path><path d="M207 819L288 936L342 828Z" fill="#0e366d" stroke="#0e366d"></path><path d="M331 244L495 369L475 207Z" fill="#004aaa" stroke="#004aaa"></path><path d="M1798 596L1800 476L1712 570Z" fill="#00469d" stroke="#00469d"></path><path d="M1842 257L1713 125L1651 206Z" fill="#053e85" stroke="#053e85"></path><path d="M207 819L342 828L313 742Z" fill="#0052c2" stroke="#0052c2"></path><path d="M315 926L352 1080L498 920Z" fill="#0a3a79" stroke="#0a3a79"></path><path d="M741 0L565 0L682 145Z" fill="#0856cf" stroke="#0856cf"></path><path d="M338 147L331 244L475 207Z" fill="#004aaa" stroke="#004aaa"></path><path d="M288 936L352 1080L315 926Z" fill="#00469d" stroke="#00469d"></path><path d="M338 147L475 207L526 106Z" fill="#123161" stroke="#123161"></path><path d="M196 358L238 466L385 399Z" fill="#053e85" stroke="#053e85"></path><path d="M260 616L210 705L313 742Z" fill="#004eb6" stroke="#004eb6"></path><path d="M1670 1080L1782 1000L1690 920Z" fill="#0052c2" stroke="#0052c2"></path><path d="M1920 739L1920 607L1765 673Z" fill="#0856cf" stroke="#0856cf"></path><path d="M92 633L210 705L260 616Z" fill="#00469d" stroke="#00469d"></path><path d="M210 705L207 819L313 742Z" fill="#0856cf" stroke="#0856cf"></path><path d="M288 936L240 1080L352 1080Z" fill="#0a3a79" stroke="#0a3a79"></path><path d="M565 0L483 0L526 106Z" fill="#004eb6" stroke="#004eb6"></path><path d="M1842 257L1651 206L1696 321Z" fill="#014291" stroke="#014291"></path><path d="M1651 206L1713 125L1511 115Z" fill="#004eb6" stroke="#004eb6"></path><path d="M1920 518L1844 356L1800 476Z" fill="#00469d" stroke="#00469d"></path><path d="M1800 476L1844 356L1696 321Z" fill="#0052c2" stroke="#0052c2"></path><path d="M1920 518L1800 476L1798 596Z" fill="#053e85" stroke="#053e85"></path><path d="M483 0L338 147L526 106Z" fill="#142d55" stroke="#142d55"></path><path d="M136 377L168 520L238 466Z" fill="#014291" stroke="#014291"></path><path d="M1713 125L1606 0L1511 115Z" fill="#004aaa" stroke="#004aaa"></path><path d="M1670 1080L1790 1080L1782 1000Z" fill="#142d55" stroke="#142d55"></path><path d="M1920 739L1765 673L1780 800Z" fill="#00469d" stroke="#00469d"></path><path d="M196 358L385 399L331 244Z" fill="#004aaa" stroke="#004aaa"></path><path d="M238 466L168 520L260 616Z" fill="#0e366d" stroke="#0e366d"></path><path d="M210 705L158 795L207 819Z" fill="#004eb6" stroke="#004eb6"></path><path d="M1920 739L1780 800L1920 828Z" fill="#0e366d" stroke="#0e366d"></path><path d="M1920 828L1780 800L1782 1000Z" fill="#123161" stroke="#123161"></path><path d="M236 256L196 358L331 244Z" fill="#0e366d" stroke="#0e366d"></path><path d="M132 729L158 795L210 705Z" fill="#0052c2" stroke="#0052c2"></path><path d="M86 942L240 1080L288 936Z" fill="#004aaa" stroke="#004aaa"></path><path d="M338 147L236 256L331 244Z" fill="#014291" stroke="#014291"></path><path d="M1920 607L1920 518L1798 596Z" fill="#123161" stroke="#123161"></path><path d="M1844 356L1842 257L1696 321Z" fill="#123161" stroke="#123161"></path><path d="M1713 125L1720 0L1606 0Z" fill="#053e85" stroke="#053e85"></path><path d="M1920 348L1842 257L1844 356Z" fill="#0052c2" stroke="#0052c2"></path><path d="M1920 996L1920 828L1782 1000Z" fill="#123161" stroke="#123161"></path><path d="M86 942L288 936L207 819Z" fill="#053e85" stroke="#053e85"></path><path d="M92 633L132 729L210 705Z" fill="#00469d" stroke="#00469d"></path><path d="M158 795L86 942L207 819Z" fill="#004eb6" stroke="#004eb6"></path><path d="M1920 518L1920 348L1844 356Z" fill="#123161" stroke="#123161"></path><path d="M196 358L136 377L238 466Z" fill="#014291" stroke="#014291"></path><path d="M168 520L92 633L260 616Z" fill="#004eb6" stroke="#004eb6"></path><path d="M80 283L136 377L196 358Z" fill="#0e366d" stroke="#0e366d"></path><path d="M1920 212L1806 106L1842 257Z" fill="#00469d" stroke="#00469d"></path><path d="M1842 257L1806 106L1713 125Z" fill="#0856cf" stroke="#0856cf"></path><path d="M1806 106L1720 0L1713 125Z" fill="#004eb6" stroke="#004eb6"></path><path d="M0 560L92 633L168 520Z" fill="#00469d" stroke="#00469d"></path><path d="M0 871L86 942L158 795Z" fill="#00469d" stroke="#00469d"></path><path d="M1790 1080L1920 996L1782 1000Z" fill="#142d55" stroke="#142d55"></path><path d="M338 147L239 111L236 256Z" fill="#004aaa" stroke="#004aaa"></path><path d="M236 256L80 283L196 358Z" fill="#123161" stroke="#123161"></path><path d="M314 0L239 111L338 147Z" fill="#014291" stroke="#014291"></path><path d="M483 0L314 0L338 147Z" fill="#142d55" stroke="#142d55"></path><path d="M1790 1080L1920 1080L1920 996Z" fill="#142d55" stroke="#142d55"></path><path d="M1920 348L1920 212L1842 257Z" fill="#0856cf" stroke="#0856cf"></path><path d="M1806 106L1781 0L1720 0Z" fill="#004aaa" stroke="#004aaa"></path><path d="M1920 0L1781 0L1806 106Z" fill="#014291" stroke="#014291"></path><path d="M314 0L285 0L239 111Z" fill="#0856cf" stroke="#0856cf"></path><path d="M0 744L158 795L132 729Z" fill="#142d55" stroke="#142d55"></path><path d="M86 942L123 1080L240 1080Z" fill="#123161" stroke="#123161"></path><path d="M0 495L0 560L168 520Z" fill="#123161" stroke="#123161"></path><path d="M92 633L0 744L132 729Z" fill="#0856cf" stroke="#0856cf"></path><path d="M124 144L80 283L236 256Z" fill="#004eb6" stroke="#004eb6"></path><path d="M124 144L236 256L239 111Z" fill="#004eb6" stroke="#004eb6"></path><path d="M1920 212L1920 104L1806 106Z" fill="#0052c2" stroke="#0052c2"></path><path d="M0 495L168 520L136 377Z" fill="#0856cf" stroke="#0856cf"></path><path d="M0 560L0 744L92 633Z" fill="#004eb6" stroke="#004eb6"></path><path d="M86 942L0 975L123 1080Z" fill="#0e366d" stroke="#0e366d"></path><path d="M95 0L124 144L239 111Z" fill="#004eb6" stroke="#004eb6"></path><path d="M0 321L0 495L136 377Z" fill="#00469d" stroke="#00469d"></path><path d="M0 321L136 377L80 283Z" fill="#0e366d" stroke="#0e366d"></path><path d="M0 744L0 871L158 795Z" fill="#0856cf" stroke="#0856cf"></path><path d="M0 871L0 975L86 942Z" fill="#0052c2" stroke="#0052c2"></path><path d="M0 253L0 321L80 283Z" fill="#004eb6" stroke="#004eb6"></path><path d="M1920 104L1920 0L1806 106Z" fill="#014291" stroke="#014291"></path><path d="M124 144L0 253L80 283Z" fill="#004eb6" stroke="#004eb6"></path><path d="M0 116L0 253L124 144Z" fill="#014291" stroke="#014291"></path><path d="M0 975L0 1080L123 1080Z" fill="#004eb6" stroke="#004eb6"></path><path d="M285 0L95 0L239 111Z" fill="#004aaa" stroke="#004aaa"></path><path d="M95 0L0 116L124 144Z" fill="#053e85" stroke="#053e85"></path><path d="M95 0L0 0L0 116Z" fill="#004eb6" stroke="#004eb6"></path></g></svg>