<svg xmlns="http://www.w3.org/2000/svg" version="1.1" xmlns:xlink="http://www.w3.org/1999/xlink" xmlns:svgjs="http://svgjs.com/svgjs" width="1920" height="1080" preserveAspectRatio="none" viewBox="0 0 1920 1080"><g mask="url(&quot;#SvgjsMask1092&quot;)" fill="none"><rect width="1920" height="1080" x="0" y="0" fill="rgba(20, 45, 85, 1)"></rect><path d="M 0,181 C 64,218 192,373.4 320,366 C 448,358.6 512,146.2 640,144 C 768,141.8 832,362.6 960,355 C 1088,347.4 1152,81 1280,106 C 1408,131 1472,488 1600,480 C 1728,472 1856,148.8 1920,66L1920 1080L0 1080z" fill="rgba(8, 86, 207, 1)"></path><path d="M 0,907 C 76.8,869.6 230.4,709.2 384,720 C 537.6,730.8 614.4,976.8 768,961 C 921.6,945.2 998.4,657.2 1152,641 C 1305.6,624.8 1382.4,877 1536,880 C 1689.6,883 1843.2,700.8 1920,656L1920 1080L0 1080z" fill="rgba(183, 227, 255, 1)"></path></g><defs><mask id="SvgjsMask1092"><rect width="1920" height="1080" fill="#ffffff"></rect></mask></defs></svg>